<svg xmlns="http://www.w3.org/2000/svg" xmlns:xlink="http://www.w3.org/1999/xlink" width="422" zoomAndPan="magnify" viewBox="0 0 316.5 86.249997" height="115" preserveAspectRatio="xMidYMid meet" version="1.0"><defs><g/><clipPath id="ebe1e32349"><path d="M 1.117188 0 L 314.886719 0 L 314.886719 85.507812 L 1.117188 85.507812 Z M 1.117188 0 " clip-rule="nonzero"/></clipPath><clipPath id="37dd0d74a7"><path d="M 2 1.214844 L 71 1.214844 L 71 70 L 2 70 Z M 2 1.214844 " clip-rule="nonzero"/></clipPath><clipPath id="e4a7c420da"><path d="M 1.117188 9 L 83 9 L 83 85.234375 L 1.117188 85.234375 Z M 1.117188 9 " clip-rule="nonzero"/></clipPath></defs><g clip-path="url(#ebe1e32349)"><path fill="#ffffff" d="M 1.117188 0 L 314.886719 0 L 314.886719 85.507812 L 1.117188 85.507812 Z M 1.117188 0 " fill-opacity="1" fill-rule="nonzero"/></g><g clip-path="url(#37dd0d74a7)"><path fill="#8cc546" d="M 26.640625 64.921875 L 46.828125 64.921875 L 46.828125 45.441406 L 66.277344 45.441406 L 66.277344 25.226562 L 46.828125 25.226562 L 46.828125 5.746094 L 26.640625 5.746094 L 26.640625 25.226562 L 7.1875 25.226562 L 7.1875 45.441406 L 26.640625 45.441406 Z M 47.582031 69.457031 L 25.882812 69.457031 C 23.804688 69.457031 22.109375 67.761719 22.109375 65.675781 L 22.109375 49.976562 L 6.433594 49.976562 C 4.351562 49.976562 2.660156 48.28125 2.660156 46.199219 L 2.660156 24.46875 C 2.660156 22.386719 4.351562 20.691406 6.433594 20.691406 L 22.109375 20.691406 L 22.109375 4.992188 C 22.109375 2.910156 23.804688 1.214844 25.882812 1.214844 L 47.582031 1.214844 C 49.664062 1.214844 51.355469 2.910156 51.355469 4.992188 L 51.355469 20.691406 L 67.03125 20.691406 C 69.113281 20.691406 70.804688 22.386719 70.804688 24.46875 L 70.804688 46.199219 C 70.804688 48.28125 69.113281 49.976562 67.03125 49.976562 L 51.355469 49.976562 L 51.355469 65.675781 C 51.355469 67.761719 49.664062 69.457031 47.582031 69.457031 " fill-opacity="1" fill-rule="nonzero"/></g><path fill="#414042" d="M 7.539062 70.324219 C 5.996094 70.324219 4.742188 71.578125 4.742188 73.125 C 4.742188 74.675781 5.996094 75.929688 7.539062 75.929688 C 9.085938 75.929688 10.339844 74.675781 10.339844 73.125 C 10.339844 71.578125 9.085938 70.324219 7.539062 70.324219 " fill-opacity="1" fill-rule="nonzero"/><g clip-path="url(#e4a7c420da)"><path fill="#1875c1" d="M 78.5 79.425781 C 77.195312 81.230469 73.976562 81.769531 71.621094 81.691406 C 56.910156 81.175781 44.445312 72.175781 39.972656 59.074219 C 40.003906 59.070312 40.03125 59.066406 40.054688 59.066406 C 51.363281 57.9375 63.261719 60.929688 72.695312 67.265625 C 74.613281 68.554688 76.988281 70.339844 78.316406 72.738281 C 79.375 74.644531 79.796875 77.636719 78.5 79.425781 Z M 7.539062 76.984375 C 5.417969 76.984375 3.6875 75.253906 3.6875 73.125 C 3.6875 71 5.417969 69.269531 7.539062 69.269531 C 8.273438 69.269531 8.957031 69.480469 9.539062 69.835938 C 9.578125 70.171875 9.714844 70.5 9.953125 70.773438 C 10.222656 71.089844 10.582031 71.28125 10.960938 71.355469 C 11.234375 71.886719 11.394531 72.488281 11.394531 73.125 C 11.394531 75.253906 9.664062 76.984375 7.539062 76.984375 Z M 81.402344 71.023438 C 79.710938 67.964844 76.910156 65.839844 74.660156 64.328125 C 64.40625 57.441406 51.992188 54.324219 39.710938 55.546875 C 39.476562 55.570312 39.242188 55.59375 39.003906 55.621094 C 38.558594 53.625 38.300781 51.582031 38.234375 49.515625 L 40.023438 46.746094 C 46.507812 43.058594 50.535156 33.910156 51.011719 32.78125 C 51.289062 32.125 51.261719 31.417969 50.996094 30.8125 C 52.8125 25.777344 53.765625 20.714844 54.253906 17.195312 C 54.496094 15.453125 53.972656 13.691406 52.820312 12.363281 C 51.664062 11.035156 49.992188 10.273438 48.230469 10.273438 L 46.816406 10.273438 C 46.386719 9.886719 45.820312 9.648438 45.199219 9.648438 L 43.171875 9.648438 C 41.832031 9.648438 40.742188 10.742188 40.742188 12.082031 C 40.742188 13.421875 41.832031 14.511719 43.171875 14.511719 L 45.199219 14.511719 C 45.863281 14.511719 46.46875 14.242188 46.90625 13.808594 L 48.230469 13.808594 C 48.980469 13.808594 49.664062 14.121094 50.15625 14.6875 C 50.648438 15.25 50.859375 15.96875 50.757812 16.707031 C 50.292969 20.042969 49.394531 24.847656 47.703125 29.570312 C 47.164062 29.816406 46.710938 30.257812 46.460938 30.847656 C 45.625 32.828125 43.332031 37.195312 40.386719 40.203125 L 32.515625 40.203125 C 29.574219 37.195312 27.273438 32.828125 26.433594 30.847656 C 26.183594 30.257812 25.730469 29.816406 25.191406 29.570312 C 23.496094 24.847656 22.601562 20.042969 22.136719 16.707031 C 22.035156 15.96875 22.246094 15.25 22.738281 14.6875 C 23.230469 14.121094 23.914062 13.808594 24.664062 13.808594 L 25.988281 13.808594 C 26.425781 14.242188 27.03125 14.511719 27.695312 14.511719 L 29.722656 14.511719 C 31.0625 14.511719 32.152344 13.421875 32.152344 12.082031 C 32.152344 10.742188 31.0625 9.648438 29.722656 9.648438 L 27.695312 9.648438 C 27.074219 9.648438 26.507812 9.886719 26.078125 10.273438 L 24.664062 10.273438 C 22.902344 10.273438 21.230469 11.035156 20.074219 12.363281 C 18.921875 13.691406 18.398438 15.453125 18.640625 17.195312 C 19.128906 20.714844 20.082031 25.777344 21.898438 30.8125 C 21.632812 31.417969 21.605469 32.125 21.882812 32.78125 C 22.359375 33.910156 26.386719 43.058594 32.867188 46.746094 L 34.695312 49.566406 L 34.703125 49.582031 C 34.773438 51.796875 35.039062 53.992188 35.503906 56.140625 C 26.546875 57.789062 17.90625 61.832031 10.886719 67.65625 C 9.914062 67.054688 8.765625 66.707031 7.539062 66.707031 C 4.007812 66.707031 1.132812 69.585938 1.132812 73.125 C 1.132812 76.664062 4.007812 79.546875 7.539062 79.546875 C 11.074219 79.546875 13.949219 76.664062 13.949219 73.125 C 13.949219 72.097656 13.707031 71.128906 13.277344 70.265625 C 19.878906 64.824219 28.007812 61.066406 36.417969 59.570312 C 41.171875 74.410156 55.066406 84.648438 71.5 85.226562 C 71.648438 85.230469 71.828125 85.234375 72.039062 85.234375 C 74.128906 85.234375 78.9375 84.847656 81.359375 81.5 C 83.636719 78.359375 82.976562 73.867188 81.402344 71.023438 " fill-opacity="1" fill-rule="nonzero"/></g><path stroke-linecap="butt" transform="matrix(0.743534, 0, 0, 0.743534, 91.672946, 46.612511)" fill="none" stroke-linejoin="miter" d="M -0.00144031 0.999224 L 233.007272 0.999224 " stroke="#8cc546" stroke-width="2" stroke-opacity="1" stroke-miterlimit="4"/><g fill="#737373" fill-opacity="1"><g transform="translate(88.915456, 36.385004)"><g><path d="M 13.09375 -15.578125 C 12.945312 -16.203125 12.65625 -16.707031 12.21875 -17.09375 C 11.78125 -17.476562 11.265625 -17.765625 10.671875 -17.953125 C 10.078125 -18.148438 9.484375 -18.25 8.890625 -18.25 C 8.160156 -18.25 7.4375 -18.125 6.71875 -17.875 C 6 -17.625 5.421875 -17.21875 4.984375 -16.65625 C 4.804688 -16.4375 4.675781 -16.179688 4.59375 -15.890625 C 4.507812 -15.597656 4.46875 -15.304688 4.46875 -15.015625 C 4.46875 -14.210938 4.703125 -13.609375 5.171875 -13.203125 C 5.648438 -12.804688 6.253906 -12.535156 6.984375 -12.390625 C 7.710938 -12.253906 8.46875 -12.144531 9.25 -12.0625 C 9.96875 -11.988281 10.707031 -11.863281 11.46875 -11.6875 C 12.226562 -11.519531 12.953125 -11.273438 13.640625 -10.953125 C 14.328125 -10.628906 14.925781 -10.195312 15.4375 -9.65625 C 15.945312 -9.125 16.304688 -8.4375 16.515625 -7.59375 C 16.609375 -7.09375 16.65625 -6.632812 16.65625 -6.21875 C 16.65625 -5.195312 16.429688 -4.289062 15.984375 -3.5 C 15.535156 -2.707031 14.9375 -2.035156 14.1875 -1.484375 C 13.4375 -0.929688 12.59375 -0.515625 11.65625 -0.234375 C 10.726562 0.046875 9.796875 0.1875 8.859375 0.1875 C 8.054688 0.1875 7.226562 0.0664062 6.375 -0.171875 C 5.53125 -0.421875 4.738281 -0.78125 4 -1.25 C 3.269531 -1.71875 2.660156 -2.304688 2.171875 -3.015625 C 1.679688 -3.722656 1.390625 -4.550781 1.296875 -5.5 L 1.265625 -6.0625 L 4.328125 -6.125 L 4.359375 -5.671875 L 4.359375 -5.796875 C 4.429688 -5.148438 4.703125 -4.601562 5.171875 -4.15625 C 5.648438 -3.707031 6.226562 -3.375 6.90625 -3.15625 C 7.582031 -2.9375 8.242188 -2.828125 8.890625 -2.828125 C 9.648438 -2.828125 10.390625 -2.957031 11.109375 -3.21875 C 11.828125 -3.488281 12.421875 -3.878906 12.890625 -4.390625 C 13.359375 -4.898438 13.59375 -5.519531 13.59375 -6.25 C 13.59375 -6.46875 13.5625 -6.707031 13.5 -6.96875 C 13.382812 -7.507812 13.09375 -7.910156 12.625 -8.171875 C 12.15625 -8.441406 11.585938 -8.632812 10.921875 -8.75 C 10.265625 -8.875 9.585938 -8.96875 8.890625 -9.03125 C 8.066406 -9.113281 7.234375 -9.238281 6.390625 -9.40625 C 5.546875 -9.582031 4.765625 -9.859375 4.046875 -10.234375 C 3.328125 -10.617188 2.734375 -11.144531 2.265625 -11.8125 C 1.796875 -12.476562 1.519531 -13.363281 1.4375 -14.46875 L 1.4375 -14.4375 C 1.4375 -14.539062 1.429688 -14.628906 1.421875 -14.703125 C 1.410156 -14.785156 1.40625 -14.867188 1.40625 -14.953125 C 1.40625 -16.253906 1.796875 -17.410156 2.578125 -18.421875 C 3.273438 -19.347656 4.203125 -20.046875 5.359375 -20.515625 C 6.523438 -20.984375 7.71875 -21.21875 8.9375 -21.21875 C 10.019531 -21.21875 11.078125 -21.019531 12.109375 -20.625 C 13.140625 -20.238281 14.015625 -19.640625 14.734375 -18.828125 C 15.453125 -18.023438 15.90625 -16.984375 16.09375 -15.703125 Z M 13.09375 -15.578125 "/></g></g></g><g fill="#737373" fill-opacity="1"><g transform="translate(107.040629, 36.385004)"><g><path d="M 19.125 0 L 16.171875 0 L 16.171875 -2.1875 C 15.796875 -1.613281 15.273438 -1.144531 14.609375 -0.78125 C 13.953125 -0.414062 13.253906 -0.15625 12.515625 0 C 11.773438 0.15625 11.066406 0.242188 10.390625 0.265625 C 8.503906 0.265625 6.910156 -0.125 5.609375 -0.90625 C 4.304688 -1.695312 3.320312 -2.738281 2.65625 -4.03125 C 1.988281 -5.320312 1.65625 -6.707031 1.65625 -8.1875 C 1.65625 -9.65625 1.992188 -11.019531 2.671875 -12.28125 C 3.347656 -13.539062 4.335938 -14.5625 5.640625 -15.34375 C 6.941406 -16.125 8.503906 -16.515625 10.328125 -16.515625 C 11.003906 -16.515625 11.703125 -16.445312 12.421875 -16.3125 C 13.140625 -16.1875 13.828125 -15.945312 14.484375 -15.59375 C 15.148438 -15.238281 15.722656 -14.734375 16.203125 -14.078125 L 16.171875 -16.234375 L 19.125 -16.234375 Z M 16.171875 -8.140625 C 16.171875 -9.429688 15.875 -10.503906 15.28125 -11.359375 C 14.695312 -12.210938 13.953125 -12.851562 13.046875 -13.28125 C 12.148438 -13.707031 11.242188 -13.921875 10.328125 -13.921875 C 9.140625 -13.921875 8.113281 -13.664062 7.25 -13.15625 C 6.394531 -12.644531 5.738281 -11.957031 5.28125 -11.09375 C 4.820312 -10.238281 4.59375 -9.269531 4.59375 -8.1875 C 4.59375 -7.164062 4.820312 -6.207031 5.28125 -5.3125 C 5.738281 -4.425781 6.394531 -3.707031 7.25 -3.15625 C 8.101562 -2.613281 9.128906 -2.34375 10.328125 -2.34375 C 11.222656 -2.34375 12.117188 -2.550781 13.015625 -2.96875 C 13.921875 -3.394531 14.671875 -4.035156 15.265625 -4.890625 C 15.867188 -5.753906 16.171875 -6.835938 16.171875 -8.140625 Z M 16.171875 -8.140625 "/></g></g></g><g fill="#737373" fill-opacity="1"><g transform="translate(128.376706, 36.385004)"><g><path d="M 2.25 0 L 2.25 -21.015625 L 5.1875 -21.015625 L 5.1875 0 Z M 2.25 0 "/></g></g></g><g fill="#737373" fill-opacity="1"><g transform="translate(136.088924, 36.385004)"><g><path d="M 14.234375 -2.125 C 13.628906 -1.25 12.882812 -0.632812 12 -0.28125 C 11.125 0.0625 10.15625 0.234375 9.09375 0.234375 C 7.457031 0.234375 6.117188 -0.0820312 5.078125 -0.71875 C 4.035156 -1.363281 3.269531 -2.269531 2.78125 -3.4375 C 2.289062 -4.601562 2.046875 -5.957031 2.046875 -7.5 L 2.046875 -16.390625 L 4.984375 -16.390625 L 4.984375 -7.5 C 4.984375 -6.5 5.097656 -5.609375 5.328125 -4.828125 C 5.554688 -4.046875 5.976562 -3.441406 6.59375 -3.015625 C 7.21875 -2.585938 8.125 -2.375 9.3125 -2.375 C 10.84375 -2.375 12.019531 -2.859375 12.84375 -3.828125 C 13.664062 -4.796875 14.078125 -5.988281 14.078125 -7.40625 L 14.078125 -16.390625 L 17.015625 -16.390625 L 17.015625 0 L 14.234375 0 Z M 14.234375 -2.125 "/></g></g></g><g fill="#737373" fill-opacity="1"><g transform="translate(155.68451, 36.385004)"><g><path d="M 18.21875 -21.015625 L 18.21875 0 L 15.28125 0 L 15.28125 -2.1875 C 14.695312 -1.3125 13.898438 -0.6875 12.890625 -0.3125 C 11.878906 0.0507812 10.863281 0.242188 9.84375 0.265625 C 7.96875 0.265625 6.382812 -0.101562 5.09375 -0.84375 C 3.800781 -1.582031 2.828125 -2.59375 2.171875 -3.875 C 1.523438 -5.15625 1.203125 -6.59375 1.203125 -8.1875 C 1.203125 -9.75 1.535156 -11.15625 2.203125 -12.40625 C 2.878906 -13.65625 3.859375 -14.648438 5.140625 -15.390625 C 6.429688 -16.140625 7.988281 -16.515625 9.8125 -16.515625 C 10.8125 -16.515625 11.796875 -16.359375 12.765625 -16.046875 C 13.742188 -15.734375 14.582031 -15.097656 15.28125 -14.140625 L 15.28125 -21.015625 Z M 15.28125 -8.140625 C 15.28125 -9.429688 15.015625 -10.503906 14.484375 -11.359375 C 13.953125 -12.210938 13.269531 -12.851562 12.4375 -13.28125 C 11.613281 -13.707031 10.738281 -13.921875 9.8125 -13.921875 C 8.613281 -13.921875 7.59375 -13.640625 6.75 -13.078125 C 5.914062 -12.523438 5.269531 -11.804688 4.8125 -10.921875 C 4.363281 -10.046875 4.140625 -9.117188 4.140625 -8.140625 C 4.140625 -7.035156 4.359375 -6.039062 4.796875 -5.15625 C 5.242188 -4.28125 5.890625 -3.59375 6.734375 -3.09375 C 7.585938 -2.59375 8.601562 -2.34375 9.78125 -2.34375 C 10.707031 -2.34375 11.585938 -2.550781 12.421875 -2.96875 C 13.265625 -3.394531 13.953125 -4.035156 14.484375 -4.890625 C 15.015625 -5.753906 15.28125 -6.835938 15.28125 -8.140625 Z M 15.28125 -8.140625 "/></g></g></g><g fill="#737373" fill-opacity="1"><g transform="translate(176.480431, 36.385004)"><g/></g></g><g fill="#737373" fill-opacity="1"><g transform="translate(184.222658, 36.385004)"><g><path d="M 2.578125 -21.015625 L 4.921875 -21.015625 L 15.15625 -6.21875 L 15.15625 -21.015625 L 18.15625 -21.015625 L 18.15625 0 L 15.765625 0 L 5.609375 -14.671875 L 5.609375 0 L 2.578125 0 Z M 2.578125 -21.015625 "/></g></g></g><g fill="#737373" fill-opacity="1"><g transform="translate(205.228641, 36.385004)"><g><path d="M 19.0625 -8.109375 C 19.0625 -6.703125 18.816406 -5.472656 18.328125 -4.421875 C 17.835938 -3.367188 17.171875 -2.492188 16.328125 -1.796875 C 15.484375 -1.097656 14.535156 -0.570312 13.484375 -0.21875 C 12.441406 0.125 11.367188 0.296875 10.265625 0.296875 C 9.179688 0.296875 8.117188 0.125 7.078125 -0.21875 C 6.035156 -0.570312 5.097656 -1.097656 4.265625 -1.796875 C 3.441406 -2.492188 2.785156 -3.367188 2.296875 -4.421875 C 1.804688 -5.472656 1.5625 -6.703125 1.5625 -8.109375 C 1.5625 -9.503906 1.804688 -10.726562 2.296875 -11.78125 C 2.785156 -12.832031 3.445312 -13.707031 4.28125 -14.40625 C 5.125 -15.101562 6.070312 -15.628906 7.125 -15.984375 C 8.175781 -16.335938 9.253906 -16.515625 10.359375 -16.515625 C 11.453125 -16.515625 12.515625 -16.335938 13.546875 -15.984375 C 14.578125 -15.628906 15.507812 -15.101562 16.34375 -14.40625 C 17.175781 -13.707031 17.835938 -12.832031 18.328125 -11.78125 C 18.816406 -10.726562 19.0625 -9.503906 19.0625 -8.109375 Z M 4.5 -8.109375 C 4.5 -6.828125 4.785156 -5.757812 5.359375 -4.90625 C 5.929688 -4.050781 6.660156 -3.410156 7.546875 -2.984375 C 8.441406 -2.554688 9.367188 -2.34375 10.328125 -2.34375 C 11.304688 -2.34375 12.234375 -2.554688 13.109375 -2.984375 C 13.992188 -3.410156 14.722656 -4.054688 15.296875 -4.921875 C 15.867188 -5.785156 16.15625 -6.847656 16.15625 -8.109375 C 16.15625 -9.390625 15.875 -10.457031 15.3125 -11.3125 C 14.75 -12.175781 14.019531 -12.820312 13.125 -13.25 C 12.238281 -13.675781 11.316406 -13.890625 10.359375 -13.890625 C 9.378906 -13.890625 8.441406 -13.675781 7.546875 -13.25 C 6.660156 -12.820312 5.929688 -12.179688 5.359375 -11.328125 C 4.785156 -10.484375 4.5 -9.410156 4.5 -8.109375 Z M 4.5 -8.109375 "/></g></g></g><g fill="#737373" fill-opacity="1"><g transform="translate(226.324648, 36.385004)"><g><path d="M 12.84375 -16.234375 L 15.96875 -16.234375 L 9.390625 0.125 L 7.046875 0.125 L 0.453125 -16.234375 L 3.578125 -16.234375 L 6.25 -9.640625 L 8.21875 -3.9375 L 10.203125 -9.578125 Z M 12.84375 -16.234375 "/></g></g></g><g fill="#737373" fill-opacity="1"><g transform="translate(243.069421, 36.385004)"><g><path d="M 19.125 0 L 16.171875 0 L 16.171875 -2.1875 C 15.796875 -1.613281 15.273438 -1.144531 14.609375 -0.78125 C 13.953125 -0.414062 13.253906 -0.15625 12.515625 0 C 11.773438 0.15625 11.066406 0.242188 10.390625 0.265625 C 8.503906 0.265625 6.910156 -0.125 5.609375 -0.90625 C 4.304688 -1.695312 3.320312 -2.738281 2.65625 -4.03125 C 1.988281 -5.320312 1.65625 -6.707031 1.65625 -8.1875 C 1.65625 -9.65625 1.992188 -11.019531 2.671875 -12.28125 C 3.347656 -13.539062 4.335938 -14.5625 5.640625 -15.34375 C 6.941406 -16.125 8.503906 -16.515625 10.328125 -16.515625 C 11.003906 -16.515625 11.703125 -16.445312 12.421875 -16.3125 C 13.140625 -16.1875 13.828125 -15.945312 14.484375 -15.59375 C 15.148438 -15.238281 15.722656 -14.734375 16.203125 -14.078125 L 16.171875 -16.234375 L 19.125 -16.234375 Z M 16.171875 -8.140625 C 16.171875 -9.429688 15.875 -10.503906 15.28125 -11.359375 C 14.695312 -12.210938 13.953125 -12.851562 13.046875 -13.28125 C 12.148438 -13.707031 11.242188 -13.921875 10.328125 -13.921875 C 9.140625 -13.921875 8.113281 -13.664062 7.25 -13.15625 C 6.394531 -12.644531 5.738281 -11.957031 5.28125 -11.09375 C 4.820312 -10.238281 4.59375 -9.269531 4.59375 -8.1875 C 4.59375 -7.164062 4.820312 -6.207031 5.28125 -5.3125 C 5.738281 -4.425781 6.394531 -3.707031 7.25 -3.15625 C 8.101562 -2.613281 9.128906 -2.34375 10.328125 -2.34375 C 11.222656 -2.34375 12.117188 -2.550781 13.015625 -2.96875 C 13.921875 -3.394531 14.671875 -4.035156 15.265625 -4.890625 C 15.867188 -5.753906 16.171875 -6.835938 16.171875 -8.140625 Z M 16.171875 -8.140625 "/></g></g></g><g fill="#1875c1" fill-opacity="1"><g transform="translate(91.171066, 66.263105)"><g><path d="M 5.21875 0.15625 C 4.257812 0.15625 3.4375 -0.046875 2.75 -0.453125 C 2.0625 -0.867188 1.53125 -1.441406 1.15625 -2.171875 C 0.789062 -2.910156 0.609375 -3.765625 0.609375 -4.734375 C 0.609375 -5.703125 0.789062 -6.554688 1.15625 -7.296875 C 1.53125 -8.035156 2.0625 -8.613281 2.75 -9.03125 C 3.4375 -9.445312 4.257812 -9.65625 5.21875 -9.65625 C 6.363281 -9.65625 7.296875 -9.375 8.015625 -8.8125 C 8.742188 -8.25 9.203125 -7.453125 9.390625 -6.421875 L 7.46875 -6.421875 C 7.351562 -6.941406 7.101562 -7.347656 6.71875 -7.640625 C 6.332031 -7.929688 5.820312 -8.078125 5.1875 -8.078125 C 4.3125 -8.078125 3.625 -7.78125 3.125 -7.1875 C 2.632812 -6.59375 2.390625 -5.773438 2.390625 -4.734375 C 2.390625 -3.691406 2.632812 -2.875 3.125 -2.28125 C 3.625 -1.6875 4.3125 -1.390625 5.1875 -1.390625 C 5.820312 -1.390625 6.332031 -1.523438 6.71875 -1.796875 C 7.101562 -2.078125 7.351562 -2.460938 7.46875 -2.953125 L 9.390625 -2.953125 C 9.203125 -1.972656 8.742188 -1.207031 8.015625 -0.65625 C 7.296875 -0.113281 6.363281 0.15625 5.21875 0.15625 Z M 5.21875 0.15625 "/></g></g></g><g fill="#1875c1" fill-opacity="1"><g transform="translate(104.215729, 66.263105)"><g><path d="M 0.921875 0 L 0.921875 -9.5 L 7.125 -9.5 L 7.125 -8.09375 L 2.65625 -8.09375 L 2.65625 -5.5 L 6.71875 -5.5 L 6.71875 -4.140625 L 2.65625 -4.140625 L 2.65625 -1.390625 L 7.125 -1.390625 L 7.125 0 Z M 0.921875 0 "/></g></g></g><g fill="#1875c1" fill-opacity="1"><g transform="translate(115.104669, 66.263105)"><g><path d="M 0.921875 0 L 0.921875 -9.5 L 2.65625 -9.5 L 7.125 -2.8125 L 7.125 -9.5 L 8.859375 -9.5 L 8.859375 0 L 7.125 0 L 2.65625 -6.671875 L 2.65625 0 Z M 0.921875 0 "/></g></g></g><g fill="#1875c1" fill-opacity="1"><g transform="translate(127.932397, 66.263105)"><g><path d="M 3.140625 0 L 3.140625 -8.09375 L 0.359375 -8.09375 L 0.359375 -9.5 L 7.65625 -9.5 L 7.65625 -8.09375 L 4.875 -8.09375 L 4.875 0 Z M 3.140625 0 "/></g></g></g><g fill="#1875c1" fill-opacity="1"><g transform="translate(138.997588, 66.263105)"><g><path d="M 0.921875 0 L 0.921875 -9.5 L 4.40625 -9.5 C 5.164062 -9.5 5.789062 -9.367188 6.28125 -9.109375 C 6.78125 -8.847656 7.148438 -8.5 7.390625 -8.0625 C 7.628906 -7.625 7.75 -7.140625 7.75 -6.609375 C 7.75 -6.023438 7.597656 -5.492188 7.296875 -5.015625 C 6.992188 -4.535156 6.523438 -4.1875 5.890625 -3.96875 L 7.859375 0 L 5.859375 0 L 4.09375 -3.75 L 2.65625 -3.75 L 2.65625 0 Z M 2.65625 -5.015625 L 4.296875 -5.015625 C 4.878906 -5.015625 5.304688 -5.15625 5.578125 -5.4375 C 5.847656 -5.71875 5.984375 -6.085938 5.984375 -6.546875 C 5.984375 -7.003906 5.847656 -7.367188 5.578125 -7.640625 C 5.316406 -7.910156 4.882812 -8.046875 4.28125 -8.046875 L 2.65625 -8.046875 Z M 2.65625 -5.015625 "/></g></g></g><g fill="#1875c1" fill-opacity="1"><g transform="translate(150.49664, 66.263105)"><g><path d="M 5.375 0.15625 C 4.425781 0.15625 3.59375 -0.046875 2.875 -0.453125 C 2.164062 -0.867188 1.609375 -1.445312 1.203125 -2.1875 C 0.804688 -2.925781 0.609375 -3.78125 0.609375 -4.75 C 0.609375 -5.71875 0.804688 -6.566406 1.203125 -7.296875 C 1.609375 -8.035156 2.164062 -8.613281 2.875 -9.03125 C 3.59375 -9.445312 4.425781 -9.65625 5.375 -9.65625 C 6.3125 -9.65625 7.132812 -9.445312 7.84375 -9.03125 C 8.5625 -8.613281 9.117188 -8.035156 9.515625 -7.296875 C 9.921875 -6.566406 10.125 -5.71875 10.125 -4.75 C 10.125 -3.78125 9.921875 -2.925781 9.515625 -2.1875 C 9.117188 -1.445312 8.5625 -0.867188 7.84375 -0.453125 C 7.132812 -0.046875 6.3125 0.15625 5.375 0.15625 Z M 5.375 -1.390625 C 6.28125 -1.390625 7 -1.6875 7.53125 -2.28125 C 8.070312 -2.882812 8.34375 -3.707031 8.34375 -4.75 C 8.34375 -5.789062 8.070312 -6.609375 7.53125 -7.203125 C 7 -7.796875 6.28125 -8.09375 5.375 -8.09375 C 4.46875 -8.09375 3.742188 -7.796875 3.203125 -7.203125 C 2.660156 -6.609375 2.390625 -5.789062 2.390625 -4.75 C 2.390625 -3.707031 2.660156 -2.882812 3.203125 -2.28125 C 3.742188 -1.6875 4.46875 -1.390625 5.375 -1.390625 Z M 5.375 -1.390625 "/></g></g></g><g fill="#1875c1" fill-opacity="1"><g transform="translate(164.273425, 66.263105)"><g/></g></g><g fill="#1875c1" fill-opacity="1"><g transform="translate(170.552658, 66.263105)"><g><path d="M 0.921875 0 L 0.921875 -9.5 L 2.984375 -9.5 L 6.015625 -3.46875 L 8.984375 -9.5 L 11.046875 -9.5 L 11.046875 0 L 9.3125 0 L 9.3125 -6.546875 L 6.671875 -1.359375 L 5.296875 -1.359375 L 2.65625 -6.546875 L 2.65625 0 Z M 0.921875 0 "/></g></g></g><g fill="#1875c1" fill-opacity="1"><g transform="translate(185.576782, 66.263105)"><g><path d="M 0.921875 0 L 0.921875 -9.5 L 7.125 -9.5 L 7.125 -8.09375 L 2.65625 -8.09375 L 2.65625 -5.5 L 6.71875 -5.5 L 6.71875 -4.140625 L 2.65625 -4.140625 L 2.65625 -1.390625 L 7.125 -1.390625 L 7.125 0 Z M 0.921875 0 "/></g></g></g><g fill="#1875c1" fill-opacity="1"><g transform="translate(196.465722, 66.263105)"><g><path d="M 0.921875 0 L 0.921875 -9.5 L 4.15625 -9.5 C 5.269531 -9.5 6.1875 -9.300781 6.90625 -8.90625 C 7.625 -8.507812 8.15625 -7.957031 8.5 -7.25 C 8.851562 -6.539062 9.03125 -5.707031 9.03125 -4.75 C 9.03125 -3.789062 8.851562 -2.957031 8.5 -2.25 C 8.15625 -1.539062 7.625 -0.988281 6.90625 -0.59375 C 6.1875 -0.195312 5.269531 0 4.15625 0 Z M 2.65625 -1.484375 L 4.078125 -1.484375 C 4.878906 -1.484375 5.507812 -1.613281 5.96875 -1.875 C 6.425781 -2.132812 6.753906 -2.503906 6.953125 -2.984375 C 7.148438 -3.472656 7.25 -4.0625 7.25 -4.75 C 7.25 -5.425781 7.148438 -6.007812 6.953125 -6.5 C 6.753906 -6.988281 6.425781 -7.363281 5.96875 -7.625 C 5.507812 -7.882812 4.878906 -8.015625 4.078125 -8.015625 L 2.65625 -8.015625 Z M 2.65625 -1.484375 "/></g></g></g><g fill="#1875c1" fill-opacity="1"><g transform="translate(209.157872, 66.263105)"><g><path d="M 0.921875 0 L 0.921875 -9.5 L 2.65625 -9.5 L 2.65625 0 Z M 0.921875 0 "/></g></g></g><g fill="#1875c1" fill-opacity="1"><g transform="translate(215.789608, 66.263105)"><g><path d="M 5.21875 0.15625 C 4.257812 0.15625 3.4375 -0.046875 2.75 -0.453125 C 2.0625 -0.867188 1.53125 -1.441406 1.15625 -2.171875 C 0.789062 -2.910156 0.609375 -3.765625 0.609375 -4.734375 C 0.609375 -5.703125 0.789062 -6.554688 1.15625 -7.296875 C 1.53125 -8.035156 2.0625 -8.613281 2.75 -9.03125 C 3.4375 -9.445312 4.257812 -9.65625 5.21875 -9.65625 C 6.363281 -9.65625 7.296875 -9.375 8.015625 -8.8125 C 8.742188 -8.25 9.203125 -7.453125 9.390625 -6.421875 L 7.46875 -6.421875 C 7.351562 -6.941406 7.101562 -7.347656 6.71875 -7.640625 C 6.332031 -7.929688 5.820312 -8.078125 5.1875 -8.078125 C 4.3125 -8.078125 3.625 -7.78125 3.125 -7.1875 C 2.632812 -6.59375 2.390625 -5.773438 2.390625 -4.734375 C 2.390625 -3.691406 2.632812 -2.875 3.125 -2.28125 C 3.625 -1.6875 4.3125 -1.390625 5.1875 -1.390625 C 5.820312 -1.390625 6.332031 -1.523438 6.71875 -1.796875 C 7.101562 -2.078125 7.351562 -2.460938 7.46875 -2.953125 L 9.390625 -2.953125 C 9.203125 -1.972656 8.742188 -1.207031 8.015625 -0.65625 C 7.296875 -0.113281 6.363281 0.15625 5.21875 0.15625 Z M 5.21875 0.15625 "/></g></g></g><g fill="#1875c1" fill-opacity="1"><g transform="translate(228.834271, 66.263105)"><g><path d="M 5.375 0.15625 C 4.425781 0.15625 3.59375 -0.046875 2.875 -0.453125 C 2.164062 -0.867188 1.609375 -1.445312 1.203125 -2.1875 C 0.804688 -2.925781 0.609375 -3.78125 0.609375 -4.75 C 0.609375 -5.71875 0.804688 -6.566406 1.203125 -7.296875 C 1.609375 -8.035156 2.164062 -8.613281 2.875 -9.03125 C 3.59375 -9.445312 4.425781 -9.65625 5.375 -9.65625 C 6.3125 -9.65625 7.132812 -9.445312 7.84375 -9.03125 C 8.5625 -8.613281 9.117188 -8.035156 9.515625 -7.296875 C 9.921875 -6.566406 10.125 -5.71875 10.125 -4.75 C 10.125 -3.78125 9.921875 -2.925781 9.515625 -2.1875 C 9.117188 -1.445312 8.5625 -0.867188 7.84375 -0.453125 C 7.132812 -0.046875 6.3125 0.15625 5.375 0.15625 Z M 5.375 -1.390625 C 6.28125 -1.390625 7 -1.6875 7.53125 -2.28125 C 8.070312 -2.882812 8.34375 -3.707031 8.34375 -4.75 C 8.34375 -5.789062 8.070312 -6.609375 7.53125 -7.203125 C 7 -7.796875 6.28125 -8.09375 5.375 -8.09375 C 4.46875 -8.09375 3.742188 -7.796875 3.203125 -7.203125 C 2.660156 -6.609375 2.390625 -5.789062 2.390625 -4.75 C 2.390625 -3.707031 2.660156 -2.882812 3.203125 -2.28125 C 3.742188 -1.6875 4.46875 -1.390625 5.375 -1.390625 Z M 5.375 -1.390625 "/></g></g></g></svg>